<svg xmlns="http://www.w3.org/2000/svg" viewBox="0 0 500 500"><g transform="translate(0 -552.362)"><rect height="500" rx="250" ry="250" width="500" y="552.362" fill="#ffffff" fill-opacity="1" stroke="none" class="fill-0077b5"></rect><path d="M128.763 642.362c-21.413 0-38.763 17.39-38.763 38.842 0 21.454 17.35 38.842 38.763 38.842 21.414 0 38.763-17.388 38.763-38.842 0-21.453-17.35-38.842-38.763-38.842zM331.79 743.494v.026c-4.378-.015-8.626.16-14.184.447-12.189.631-40.656 13.838-51.079 34.922 0-9.154.106-17.56.106-30.106-12.486 0-28.825.08-62.948.08 0 38.307-.42 173.97-.42 213.5h66.078c0-23.45.316-82.354.316-119.343 0-12.42 7.508-41.105 38.316-41.105 27.974 0 35.815 23.577 35.815 41.105 0 38.523-.289 92.976-.289 119.342h66.474c0-25.772.236-95.779-.553-139.947-.958-53.628-33.533-76.51-62.763-78.316-6.015-.371-10.49-.59-14.869-.605zm-236.21 6.21v212.553h66.263V749.704H95.58z" fill="#242323" fill-opacity="1" stroke="none" class="fill-ffffff"></path></g></svg>