<?xml version="1.0" ?><!DOCTYPE svg  PUBLIC '-//W3C//DTD SVG 1.1//EN'  'http://www.w3.org/Graphics/SVG/1.1/DTD/svg11.dtd'><svg enable-background="new 0 0 48 48" height="48px" id="Layer_1" version="1.1" viewBox="0 0 48 48" width="48px" xml:space="preserve" xmlns="http://www.w3.org/2000/svg" xmlns:xlink="http://www.w3.org/1999/xlink"><g id="Layer_4"><polygon fill="#241F20" points="19.077,12.044 18.02,13.101 18.024,13.105 16.972,14.157 26.811,23.996 16.964,33.843    19.079,35.956 19.082,35.953 19.083,35.955 29.881,25.156 29.889,25.164 31.035,24.017 31.029,24.01 31.035,24.003 30.523,23.491    30.529,23.486 19.087,12.044 19.082,12.049  "/><path d="M24,0C10.745,0,0,10.745,0,24s10.745,24,24,24c13.254,0,24-10.745,24-24S37.254,0,24,0z M24,44   C12.954,44,4,35.045,4,24C4,12.954,12.954,4,24,4s20,8.954,20,20C44,35.045,35.046,44,24,44z" fill="#241F20"/></g></svg>