<?xml version="1.0" standalone="no"?>
<!DOCTYPE svg PUBLIC "-//W3C//DTD SVG 20010904//EN"
 "http://www.w3.org/TR/2001/REC-SVG-20010904/DTD/svg10.dtd">
<svg version="1.0" xmlns="http://www.w3.org/2000/svg"
 width="150.000000pt" height="150.000000pt" viewBox="0 0 150.000000 150.000000"
 preserveAspectRatio="xMidYMid meet">
<metadata>
Created by potrace 1.14, written by Peter Selinger 2001-2017
</metadata>
<g transform="translate(0.000000,150.000000) scale(0.100000,-0.100000)"
fill="#000000" stroke="none">
<path d="M0 750 l0 -750 750 0 750 0 0 750 0 750 -342 0 c-311 0 -343 -2 -362
-17 -19 -16 -19 -16 -7 -1 12 16 -11 17 -388 18 l-401 0 0 -750z m770 706 c0
-11 -19 -15 -25 -6 -3 5 1 10 9 10 9 0 16 -2 16 -4z m-40 -50 c0 -2 -7 -9 -15
-16 -13 -11 -14 -10 -9 4 5 14 24 23 24 12z m-66 -131 c-18 -28 -52 -50 -62
-40 -3 3 3 8 15 11 11 3 26 17 32 30 6 13 15 24 21 24 6 0 3 -11 -6 -25z
m-119 -75 c-39 -24 -113 -55 -100 -41 13 13 106 60 120 60 6 1 -4 -8 -20 -19z
m-115 -76 c-8 -8 -23 -20 -34 -25 -13 -7 -9 -1 9 15 34 29 43 33 25 10z m-70
-44 c-8 -5 -19 -10 -25 -10 -5 0 -3 5 5 10 8 5 20 10 25 10 6 0 3 -5 -5 -10z
m-55 -20 c-3 -5 -11 -10 -16 -10 -6 0 -7 5 -4 10 3 6 11 10 16 10 6 0 7 -4 4
-10z m-45 -21 c-31 -21 -112 -60 -116 -56 -3 2 15 14 40 25 24 12 47 26 51 32
3 5 14 10 23 10 15 0 15 -2 2 -11z m730 -56 c43 -39 51 -98 20 -150 -14 -24
-18 -39 -11 -41 19 -6 41 -59 41 -98 0 -28 -8 -44 -34 -70 l-34 -34 -231 0
-230 0 -3 155 c-2 86 -1 180 0 210 l4 55 224 0 224 0 30 -27z m-884 -18 c-11
-8 -25 -15 -30 -15 -6 0 -2 7 8 15 11 8 25 15 30 15 6 0 2 -7 -8 -15z m1164
-799 c0 -3 -4 -8 -10 -11 -5 -3 -10 -1 -10 4 0 6 5 11 10 11 6 0 10 -2 10 -4z"/>
<path d="M530 900 l0 -80 160 0 c153 0 160 -1 160 -20 0 -19 -7 -20 -95 -20
l-95 0 0 -30 0 -30 81 0 c44 0 89 4 99 10 43 23 43 117 0 140 -10 6 -55 10
-99 10 -74 0 -81 -2 -81 -20 0 -11 -7 -20 -15 -20 -11 0 -15 11 -15 40 l0 40
103 -6 c111 -7 139 -18 165 -65 21 -35 53 -38 82 -6 17 17 21 30 16 62 -9 72
-19 75 -257 75 l-209 0 0 -80z"/>
<path d="M913 771 c-10 -10 -31 -32 -46 -50 -29 -31 -29 -31 -133 -31 l-104 0
0 45 0 45 -50 0 -50 0 0 -80 0 -80 215 0 c216 0 216 0 240 25 37 36 34 86 -6
119 -36 31 -44 32 -66 7z"/>
</g>
</svg>
